<svg xmlns="http://www.w3.org/2000/svg" xmlns:xlink="http://www.w3.org/1999/xlink" version="1.1" x="0px" y="0px" viewBox="0 0 100 125" enable-background="new 0 0 100 100" xml:space="preserve"><g transform="translate(0.000000,1087.000000) scale(0.100000,-0.100000)"><path d="M166.9,10867.6c-23.1-5-41.4-14.4-49.8-25.9c-4.8-6.4-20.5-37.4-23-45.5c-5.2-16.5,0.2-37,16.1-60.1   c9-13.1,30-34.9,46.2-47.8l12.5-10l-8.6-1.3c-27-3.9-34.4-9.3-45.4-33.4c-5.6-12.4-6.3-14.8-6.4-21.3c0-6.2,0.6-8.3,4.2-15.1   c24.6-46.8,129.2-101.9,226.3-119.1c11.7-2.1,18.2-2.5,38-2.5c16.3-0.1,25.4,0.3,28.8,1.3c2.8,0.8,5.9,1.7,6.9,2   c1.3,0.4,2.8-1.3,5.5-6.4c14.1-26.7,67.8-58.8,133.8-80.1c78.1-25,156.2-28.4,180.4-7.6c6,5.1,7,7.3,10.4,22   c5.5,23.4,5,29.6-3.7,42c-2.5,3.5-4.3,6.6-4.1,6.9c0.2,0.2,5.1,0,10.9-0.7c13.7-1.4,59.8-1.4,74.2,0c20.3,2.1,41.4,8,56.9,15.8   c6.3,3.2,11.3,6.9,17.3,13c9.7,9.6,11,12.5,15.9,37.8c5.3,27.4,4.9,35.7-2.9,51.1c-10.4,20.9-33.9,43.3-65.1,62.4   c-45.7,27.9-108.8,49.1-171.9,57.8c-20.7,2.8-81.4,2.8-96.8-0.1c-15.5-2.9-32-7.6-43.6-12.7l-10.1-4.3l-1.1,4.7   c-2.3,9-4.8,15.7-8.1,22.3c-29.7,59.4-122.9,120.5-223.8,146.7c-31.7,8.3-45.1,10.1-78.2,10.6   C180.9,10870.3,178.3,10870,166.9,10867.6z M226.3,10806c51.8-5.2,108.2-24.6,156.8-53.9c33.2-20,61.7-46.3,74-68.3   c4.1-7.4,8.3-18.4,8.3-21.9c0-2.9-4.3-6.6-13.2-11.3c-10.1-5.2-23.3-8.4-39.1-9.2l-13-0.7l-32.9,32l-32.8,32l10.3,0.8   c27.7,2.1,50.9,4.3,52.6,5c2.5,1,7.1,11.2,7.1,16.1c0,5.3-3.5,9.5-11.8,13.8c-11.1,5.9-15.7,6.3-41.3,4.3   c-27.4-2.2-101.1-9.2-113.5-10.6c-10-1.2-11.4-2.3-14.4-11.3c-2.1-6.1-1.6-7.6,4.7-13.1c5.5-4.9,14.5-8.9,21.6-9.6   c3.2-0.3,18.3,0.2,33.3,1.2l27.6,1.9l23.9-23.3c13.3-12.7,27.2-26.5,31.2-30.6l7.2-7.3l-4.4,0.7c-32.4,5.2-62,13.8-91.1,26.7   c-68.2,30-119.1,75.2-127,113.1c-0.9,4.1-1.7,8.1-1.7,8.7c0,2,12.2,7.9,22.8,11C187.5,10806.7,205.8,10808,226.3,10806z    M668.9,10642.2c45.4-7.8,77.6-17.7,112.6-35c26.5-13.1,40.3-22.5,55.9-38.2c12.6-12.6,19.4-21.9,20.5-28.2c0.4-3-0.1-3.9-5.3-8.1   c-11.3-9.4-30.9-16.8-53.4-20.3c-13-2-55.6-1.7-72.5,0.6c-29.7,3.9-61.2,11.6-86.7,21.4c-14.5,5.4-34.8,14.7-42.9,19.6l-5,3.1   l51.7-0.7l51.8-0.8l41.6-13.2c38.5-12.3,42.3-13.3,50.3-13.3c10.9,0,13.7,2,15.3,10.6c1.2,7.1,0.3,9.5-5.2,13.5   c-5,3.7-2.3,2.7-77.1,26.6c-110,35.2-108,34.7-117.1,35.3c-10.6,0.8-13.2-0.6-15.8-8.4c-4.2-12.6-0.4-16.1,28.6-25.6l20.2-6.6   l-36,0.8l-36,0.7l-5.5,5.1c-10.3,9.5-17.4,18.4-21.7,26.9c-5.8,11.4-5.6,14.3,0.4,18.7c10.4,7.8,27.1,13.8,46.8,17.1   C599.7,10646.2,650.8,10645.3,668.9,10642.2z M217.8,10628.4c39.4-7,86.9-24.5,121.8-44.9l7.8-4.5l-15.5,0.1   c-8.5,0.1-22.5,0.4-31,0.9l-15.5,0.8l-42.6,16.3c-26.6,10.2-44.2,16.3-46.7,16.3c-3,0-4.7-0.7-6.3-2.8c-3.2-4.2-3.9-8.7-1.8-12   c2.7-4.1,9.7-7.4,45.5-21.3c18.2-7.1,33.3-13.3,33.4-14c0.2-0.6,1.6-1,2.9-1c1.3,0,15.4-4.9,31.2-11c33.6-12.7,42.3-15.6,48.3-15.6   c4,0,4.4,0.3,6.4,4.8c1.2,2.5,2.2,5.5,2.2,6.5c0,2.8-7.9,9-14.6,11.4l-5.9,2.2l11.6,0.3c6.4,0.2,14.7,0,18.5-0.3l6.9-0.7l9.7-10.3   c11.5-12.1,15-17.5,12.5-19.9c-6-5.8-35.9-8.1-59.9-4.7c-65,9.4-144.3,47.7-172.5,83.3c-8,10-7.5,9.4-9.5,14.1l-1.7,4l4.8,1.3   c2.5,0.8,6.9,1.8,9.6,2.2C175.2,10631.4,206.8,10630.3,217.8,10628.4z M519.4,10508.1c56.9-4.3,129.7-31,166.9-61   c6.4-5.2,16.1-16.3,16.1-18.5c0-1.7-10.5-5.8-19.7-7.6c-9.6-2-38.9-2.5-52.7-1.1l-8.6,1l0.6,3.5c0.6,3.4-0.8,5-31.7,36.3   c-17.8,18.1-34.3,34.1-36.8,35.7c-5.6,3.5-17.4,6.6-22.3,5.8c-3.2-0.7-3.9-1.4-6-7.1l-2.4-6.3l29.8-29.2   c16.3-16.1,29.1-29.3,28.5-29.6c-1.8-0.8-25.7,6.6-40.3,12.5c-17.1,6.8-41.3,19-53.6,27.4c-11.2,7.4-25.9,21.3-28.9,27.1   c-1.9,3.7-1.9,3.9,0.1,5.3C466.2,10508,490.1,10510.3,519.4,10508.1z"/><path d="M208.4,10398c-57.6-17.2-106.3-32.1-108.3-33.2c-5.2-2.7-9.4-9.6-10-16.6c-0.4-5.2,6.6-29.6,67.2-233.3   c37.3-125.1,68.3-228.9,69-230.7c1.8-4.4,7.1-10.3,11.3-12.5c7.4-3.9,9.5-3.3,117.5,28.8c56.7,16.9,104.9,31.6,107.1,32.4   c7.6,3.4,13.1,11.6,13.1,20c0,3.4-27.5,96.8-119.2,403.9c-13,43.6-18.8,61.8-20.8,64.3c-3.7,4.8-11.2,8.3-17.4,8.2   C315,10429.4,273.2,10417.4,208.4,10398z M259.2,10392.2c3.7-3.1,4.1-7.3,1.1-10.6c-2-2.3-7.5-4.3-27.9-10.3   c-23.6-7-25.5-7.4-28.2-5.9c-4,2.2-5.5,7-3.3,10.7c1.4,2.7,4.4,3.8,25.9,10.3c13.4,4.1,25.7,7.4,27.2,7.5   C255.6,10394,257.9,10393.2,259.2,10392.2z M333.7,10375c4-13.8,75.6-254.3,94.7-318.1c10-33.4,18.1-61,17.8-61.1   c-0.7-0.8-216.2-64.5-216.5-64.1c-0.3,0.2-6.9,21.8-14.6,47.8c-73.3,245.5-100.8,338.4-100.2,339.1c0.9,0.9,211.9,64,214.5,64.2   C330.8,10383,331.8,10381,333.7,10375z M182.4,10368.6c4.7-5.1,1.1-13.3-5.6-13.3c-3.9,0-8.2,4.1-8.2,7.8c0,1.1,1,3.2,2.3,4.9   C173.8,10371.6,179.4,10371.9,182.4,10368.6z M355.7,9945.7c10.2-7.5,10.1-19.5-0.2-27.1c-6.8-5-18.6-1.4-22.5,6.6   c-2.2,4.7-1.8,12.2,1.1,16.5C338.3,9948.3,349.4,9950.4,355.7,9945.7z"/><path d="M267.2,10226.7c-27.7-5.9-52.1-22.1-67.4-45.3c-5.2-7.8-5.6-10.6-2.3-14.8c2-2.5,3.1-3,6.9-2.7c4.2,0.3,5.1,0.9,10,7.5   c15.2,20.5,32.9,32.4,55.8,37.8c8.7,2,12.5,2.3,23.4,1.8c15.4-0.8,22.6-2.5,37.2-9.4c10.2-4.8,11.1-5,13.7-3.4   c1.7,0.9,3.7,2.9,4.5,4.5c3.8,6.8-3,13-21.7,19.7C308.2,10229.3,286.7,10230.8,267.2,10226.7z"/><path d="M273.1,10182.6c-15.8-4.3-32.6-14.7-42.4-26.7c-6.8-8.1-9-12.1-9-16.4c0-4.1,4.1-8,8.4-8c4.1,0,5.5,1.2,10.9,8.5   c12.3,17.2,31.6,27.1,52.7,27.4c11.5,0,22.9-2.7,32-7.8c6-3.3,8.9-3.3,12.7-0.3c2.5,2,3,3.1,2.7,7c-0.3,4-0.9,4.9-5.4,8   c-2.8,1.8-9.3,4.8-14.4,6.5c-8.2,2.8-11.2,3.2-24.8,3.5C283.8,10184.6,279.5,10184.3,273.1,10182.6z"/><path d="M292.2,10138.1c-7.6-1.1-18.6-6-26.5-11.7c-7.1-5.2-15.2-16.1-15.2-20.5c0-4.3,4.4-8.6,8.9-8.6c3.5,0,5.6,1.7,11.4,9.3   c7.8,10.1,24,16.5,36.7,14.3c3.8-0.7,9.6-2.4,13.1-4.1c7.5-3.4,8.6-3.5,12.3-0.7c3.5,2.9,4.5,7,2.5,10.9   c-2.2,4.2-14.4,9.7-24.5,11.3C302.1,10139.4,301.2,10139.4,292.2,10138.1z"/></g><text x="0" y="115" fill="#000000" font-size="5px" font-weight="bold" font-family="'Helvetica Neue', Helvetica, Arial-Unicode, Arial, Sans-serif">Created by misirlou</text><text x="0" y="120" fill="#000000" font-size="5px" font-weight="bold" font-family="'Helvetica Neue', Helvetica, Arial-Unicode, Arial, Sans-serif"></text></svg>