<svg xmlns="http://www.w3.org/2000/svg" xmlns:xlink="http://www.w3.org/1999/xlink" xml:space="preserve" version="1.1" style="shape-rendering:geometricPrecision;text-rendering:geometricPrecision;image-rendering:optimizeQuality;" viewBox="0 0 305 286.25" x="0px" y="0px" fill-rule="evenodd" clip-rule="evenodd"><defs><style type="text/css">
   
    .fil1 {fill:black}
    .fil0 {fill:black}
   
  </style></defs><g><path class="fil0" d="M167 128c-1,3 -5,6 -9,6l-11 0c-4,0 -8,-3 -9,-6l29 0z"/><path class="fil0" d="M134 126c-1,-5 0,-17 0,-23 0,-5 3,-9 7,-11 -2,2 -3,4 -3,6l0 21c0,3 2,5 4,7l-8 0z"/><path class="fil0" d="M164 92c5,2 8,6 8,11 0,6 0,18 -1,23l-8 0c2,-2 4,-4 4,-7l0 -21c0,-2 -1,-4 -3,-6z"/><path class="fil0" d="M8 89c24,-1 41,-2 47,-2 2,0 1,0 1,1 -5,1 -15,3 -17,4 -2,1 -5,1 -5,1l-27 1c-9,0 -10,-3 1,-5z"/><polygon class="fil1" points="102,186 92,186 92,180 98,162 99,161 101,155 113,133 126,120 131,120 116,136 106,154 107,153 109,153 109,155 113,154 111,159 109,159 100,179 104,179 "/><path class="fil0" d="M47 102l10 0c0,-2 0,-15 1,-16 1,0 2,-1 3,-1 1,0 3,1 3,1 2,1 1,14 1,16l10 0 0 21 -2 0c-1,2 -3,4 -5,4l-13 0c-3,0 -5,-2 -5,-4l-3 0 0 -21z"/><path class="fil0" d="M132 119c0,0 -12,-2 -15,-3 -4,-1 -8,-3 -8,-3l-28 -3 -4 2 0 -11 -11 0c1,-2 6,-7 9,-7 2,0 4,0 6,0l0 -6c-6,0 -11,0 -14,0 -1,0 0,0 0,0 4,-1 15,-3 16,-4 2,0 4,-1 5,-1l0 -8c0,-1 2,-1 3,-1 1,0 2,0 2,1l0 8 23 0c9,0 10,3 -2,5 -5,0 -9,0 -14,0l0 6 2 2 16 8c3,2 11,-1 14,-2l0 17z"/><path class="fil0" d="M51 77c18,-1 31,-2 36,-2 0,0 0,1 0,1 -4,0 -11,2 -13,3 -1,1 -3,1 -3,1l-21 0c-6,1 -7,-2 1,-3z"/><path class="fil0" d="M131 76c-18,0 -31,0 -36,0 0,0 0,0 0,0 4,-1 11,-2 13,-3 1,-1 3,-1 3,-1l21 0c7,0 7,3 -1,4z"/><path class="fil0" d="M297 89c-23,-1 -41,-2 -47,-2 -1,0 -1,0 -1,1 5,1 15,3 17,4 2,1 5,1 5,1l27 1c9,0 10,-3 -1,-5z"/><polygon class="fil1" points="203,186 213,186 213,180 207,162 206,161 205,155 193,133 179,120 174,120 189,136 199,154 198,153 196,153 196,155 192,154 194,159 196,159 205,179 201,179 "/><path class="fil0" d="M258 102l-10 0c0,-2 0,-15 -1,-16 -1,0 -2,-1 -3,-1 -1,0 -2,1 -3,1 -2,1 -1,14 -1,16l-10 0 0 21 3 0c0,2 2,4 4,4l14 0c2,0 4,-2 4,-4l3 0 0 -21z"/><path class="fil0" d="M173 119c0,0 12,-2 15,-3 4,-1 8,-3 8,-3l28 -3 4 2 0 -11 11 0c-1,-2 -6,-7 -9,-7 -2,0 -4,0 -6,0l0 -6c6,0 11,0 14,0 1,0 1,0 0,0 -4,-1 -15,-3 -16,-4 -1,0 -4,-1 -5,-1l0 -8c0,-1 -1,-1 -3,-1 -1,0 -2,0 -2,1l0 8 -23 0c-8,0 -9,3 2,5 5,0 9,0 14,0l0 6 -2 2 -16 8c-3,2 -11,-1 -14,-2l0 17z"/><path class="fil0" d="M254 77c-18,-1 -31,-2 -35,-2 -1,0 -1,1 -1,1 4,0 11,2 13,3 1,1 3,1 3,1l21 0c7,1 7,-2 -1,-3z"/><path class="fil0" d="M174 76c18,0 31,0 36,0 1,0 0,0 0,0 -4,-1 -11,-2 -13,-3 -1,-1 -3,-1 -3,-1l-21 0c-6,0 -7,3 1,4z"/><path class="fil0" d="M174 46l4 -5c-7,-6 -16,-9 -25,-9 -10,0 -19,3 -26,9l4 5c6,-5 14,-7 22,-7 8,0 15,2 21,7z"/><path class="fil0" d="M185 34l4 -5c-10,-8 -23,-13 -36,-13 -14,0 -27,5 -37,13l4 5c9,-7 20,-11 33,-11 12,0 23,4 32,11z"/><path class="fil0" d="M196 22l4 -5c-13,-11 -29,-17 -47,-17 -19,0 -35,6 -48,17l4 5c12,-10 27,-15 44,-15 16,0 31,5 43,15z"/><path class="fil0" d="M148 90l9 0c4,0 8,4 8,8l0 20c0,4 -4,8 -8,8l-9 0c-4,0 -8,-4 -8,-8l0 -20c0,-4 4,-8 8,-8zm5 11c3,0 7,3 7,7 0,4 -4,7 -7,7 -4,0 -7,-3 -7,-7 0,-4 3,-7 7,-7z"/><path class="fil0" d="M174 183l4 5c-7,5 -16,8 -25,8 -10,0 -19,-3 -26,-8l4 -5c6,4 14,7 22,7 8,0 15,-3 21,-7z"/><path class="fil0" d="M185 195l4 5c-10,8 -23,13 -36,13 -14,0 -27,-5 -37,-13l4 -5c9,7 20,11 33,11 12,0 23,-4 32,-11z"/><path class="fil0" d="M196 207l4 5c-13,10 -29,17 -47,17 -19,0 -35,-7 -48,-17l4 -5c12,9 27,15 44,15 16,0 31,-6 43,-15z"/></g><text x="0" y="244" fill="#000000" font-size="5px" font-weight="bold" font-family="'Helvetica Neue', Helvetica, Arial-Unicode, Arial, Sans-serif"></text><text x="0" y="249" fill="#000000" font-size="5px" font-weight="bold" font-family="'Helvetica Neue', Helvetica, Arial-Unicode, Arial, Sans-serif"></text></svg>